<svg width="38" height="33" viewBox="0 0 38 33" fill="none" xmlns="http://www.w3.org/2000/svg">
<path d="M25 10.8871V29C25 30.1046 24.1046 31 23 31H4C2.89543 31 2 30.1046 2 29V4C2 2.89543 2.89543 2 4 2H16.4419M25 10.8871L16.4419 2M25 10.8871H18.4419C17.3373 10.8871 16.4419 9.99167 16.4419 8.8871V2" stroke="#38BFC3"/>
<path d="M11 16C11 14.8954 11.8954 14 13 14H36C37.1046 14 38 14.8954 38 16V23C38 24.1046 37.1046 25 36 25H13C11.8954 25 11 24.1046 11 23V16Z" fill="#38BFC3"/>
<path d="M18.8301 19.0537L20.3638 16.6016H21.3569L19.3354 19.7744L21.4053 23H20.4033L18.8301 20.5039L17.248 23H16.2505L18.3247 19.7744L16.2988 16.6016H17.2876L18.8301 19.0537ZM23.2334 22.3101H26.2656V23H22.3853V16.6016H23.2334V22.3101ZM29.1133 20.1479C28.3896 19.9399 27.8623 19.6851 27.5312 19.3833C27.2031 19.0786 27.0391 18.7036 27.0391 18.2583C27.0391 17.7544 27.2397 17.3384 27.6411 17.0103C28.0454 16.6792 28.5698 16.5137 29.2144 16.5137C29.6538 16.5137 30.0449 16.5986 30.3877 16.7686C30.7334 16.9385 31 17.1729 31.1875 17.4717C31.3779 17.7705 31.4731 18.0972 31.4731 18.4517H30.625C30.625 18.0649 30.502 17.7617 30.2559 17.542C30.0098 17.3193 29.6626 17.208 29.2144 17.208C28.7983 17.208 28.4731 17.3003 28.2388 17.4849C28.0073 17.6665 27.8916 17.9199 27.8916 18.2451C27.8916 18.5059 28.0015 18.7271 28.2212 18.9087C28.4438 19.0874 28.8203 19.2515 29.3506 19.4009C29.8838 19.5503 30.2998 19.7158 30.5986 19.8975C30.9004 20.0762 31.123 20.2856 31.2666 20.5259C31.4131 20.7661 31.4863 21.0488 31.4863 21.374C31.4863 21.8926 31.2842 22.3086 30.8799 22.6221C30.4756 22.9326 29.9351 23.0879 29.2583 23.0879C28.8188 23.0879 28.4087 23.0044 28.0278 22.8374C27.647 22.6675 27.3525 22.436 27.1445 22.1431C26.9395 21.8501 26.8369 21.5176 26.8369 21.1455H27.6851C27.6851 21.5322 27.8271 21.8384 28.1113 22.064C28.3984 22.2866 28.7808 22.3979 29.2583 22.3979C29.7036 22.3979 30.0449 22.3071 30.2822 22.1255C30.5195 21.9438 30.6382 21.6963 30.6382 21.3828C30.6382 21.0693 30.5283 20.8276 30.3086 20.6577C30.0889 20.4849 29.6904 20.3149 29.1133 20.1479Z" fill="white"/>
</svg>
