<svg width="38" height="33" viewBox="0 0 38 33" fill="none" xmlns="http://www.w3.org/2000/svg">
<path d="M25 10.8871V29C25 30.1046 24.1046 31 23 31H4C2.89543 31 2 30.1046 2 29V4C2 2.89543 2.89543 2 4 2H16.4419M25 10.8871L16.4419 2M25 10.8871H18.4419C17.3373 10.8871 16.4419 9.99167 16.4419 8.8871V2" stroke="#38BFC3"/>
<path d="M11 16C11 14.8954 11.8954 14 13 14H36C37.1046 14 38 14.8954 38 16V23C38 24.1046 37.1046 25 36 25H13C11.8954 25 11 24.1046 11 23V16Z" fill="#38BFC3"/>
<path d="M17.5864 20.4951V23H16.7427V16.6016H19.1025C19.8027 16.6016 20.3506 16.7803 20.7461 17.1377C21.1445 17.4951 21.3438 17.9683 21.3438 18.5571C21.3438 19.1782 21.1489 19.6572 20.7593 19.9941C20.3726 20.3281 19.8174 20.4951 19.0938 20.4951H17.5864ZM17.5864 19.8052H19.1025C19.5537 19.8052 19.8994 19.6997 20.1396 19.4888C20.3799 19.2749 20.5 18.9673 20.5 18.5659C20.5 18.1851 20.3799 17.8804 20.1396 17.6519C19.8994 17.4233 19.5698 17.3047 19.1509 17.2959H17.5864V19.8052ZM23.2642 20.4951V23H22.4204V16.6016H24.7803C25.4805 16.6016 26.0283 16.7803 26.4238 17.1377C26.8223 17.4951 27.0215 17.9683 27.0215 18.5571C27.0215 19.1782 26.8267 19.6572 26.437 19.9941C26.0503 20.3281 25.4951 20.4951 24.7715 20.4951H23.2642ZM23.2642 19.8052H24.7803C25.2314 19.8052 25.5771 19.6997 25.8174 19.4888C26.0576 19.2749 26.1777 18.9673 26.1777 18.5659C26.1777 18.1851 26.0576 17.8804 25.8174 17.6519C25.5771 17.4233 25.2476 17.3047 24.8286 17.2959H23.2642V19.8052ZM32.519 17.2959H30.4624V23H29.623V17.2959H27.5708V16.6016H32.519V17.2959Z" fill="white"/>
</svg>
