<svg width="38" height="33" viewBox="0 0 38 33" fill="none" xmlns="http://www.w3.org/2000/svg">
<path d="M25 10.8871V29C25 30.1046 24.1046 31 23 31H4C2.89543 31 2 30.1046 2 29V4C2 2.89543 2.89543 2 4 2H16.4419M25 10.8871L16.4419 2M25 10.8871H18.4419C17.3373 10.8871 16.4419 9.99167 16.4419 8.8871V2" stroke="#38BFC3"/>
<path d="M11 16C11 14.8954 11.8954 14 13 14H36C37.1046 14 38 14.8954 38 16V23C38 24.1046 37.1046 25 36 25H13C11.8954 25 11 24.1046 11 23V16Z" fill="#38BFC3"/>
<path d="M16.7427 23V16.6016H18.5488C19.1055 16.6016 19.5977 16.7246 20.0254 16.9707C20.4531 17.2168 20.7827 17.5669 21.0142 18.021C21.2485 18.4751 21.3672 18.9966 21.3701 19.5854V19.9941C21.3701 20.5977 21.2529 21.1265 21.0186 21.5806C20.7871 22.0347 20.4546 22.3833 20.021 22.6265C19.5903 22.8696 19.0879 22.9941 18.5137 23H16.7427ZM17.5864 17.2959V22.3101H18.4741C19.1245 22.3101 19.6299 22.1079 19.9902 21.7036C20.3535 21.2993 20.5352 20.7236 20.5352 19.9766V19.603C20.5352 18.8765 20.3638 18.3125 20.021 17.9111C19.6812 17.5068 19.1978 17.3018 18.5708 17.2959H17.5864ZM27.5708 20.0073C27.5708 20.6343 27.4653 21.1821 27.2544 21.6509C27.0435 22.1167 26.7446 22.4727 26.3579 22.7188C25.9712 22.9648 25.52 23.0879 25.0044 23.0879C24.5005 23.0879 24.0537 22.9648 23.6641 22.7188C23.2744 22.4697 22.9712 22.1167 22.7544 21.6597C22.5405 21.1997 22.4307 20.668 22.4248 20.0645V19.603C22.4248 18.9878 22.5317 18.4443 22.7456 17.9727C22.9595 17.501 23.2612 17.1406 23.6509 16.8916C24.0435 16.6396 24.4917 16.5137 24.9956 16.5137C25.5083 16.5137 25.9595 16.6382 26.3491 16.8872C26.7417 17.1333 27.0435 17.4922 27.2544 17.9639C27.4653 18.4326 27.5708 18.979 27.5708 19.603V20.0073ZM26.7314 19.5942C26.7314 18.8354 26.5791 18.2539 26.2744 17.8496C25.9697 17.4424 25.5435 17.2388 24.9956 17.2388C24.4624 17.2388 24.042 17.4424 23.7344 17.8496C23.4297 18.2539 23.2729 18.8164 23.2642 19.5371V20.0073C23.2642 20.7427 23.418 21.3213 23.7256 21.7432C24.0361 22.1621 24.4624 22.3716 25.0044 22.3716C25.5493 22.3716 25.9712 22.1738 26.27 21.7783C26.5688 21.3799 26.7227 20.8101 26.7314 20.0688V19.5942ZM33.543 20.9697C33.4639 21.6465 33.2134 22.1694 32.7915 22.5386C32.3726 22.9048 31.8145 23.0879 31.1172 23.0879C30.3613 23.0879 29.7549 22.8169 29.2979 22.2749C28.8438 21.7329 28.6167 21.0078 28.6167 20.0996V19.4844C28.6167 18.8896 28.7222 18.3667 28.9331 17.9155C29.147 17.4644 29.4487 17.1187 29.8384 16.8784C30.228 16.6353 30.6792 16.5137 31.1919 16.5137C31.8716 16.5137 32.4165 16.7041 32.8267 17.085C33.2368 17.4629 33.4756 17.9873 33.543 18.6582H32.6948C32.6216 18.1484 32.4619 17.7793 32.2158 17.5508C31.9727 17.3223 31.6313 17.208 31.1919 17.208C30.6528 17.208 30.2295 17.4072 29.9219 17.8057C29.6172 18.2041 29.4648 18.771 29.4648 19.5063V20.126C29.4648 20.8203 29.6099 21.3726 29.8999 21.7827C30.1899 22.1929 30.5957 22.3979 31.1172 22.3979C31.5859 22.3979 31.9448 22.2925 32.1938 22.0815C32.4458 21.8677 32.6128 21.4971 32.6948 20.9697H33.543Z" fill="white"/>
</svg>
