<svg width="21" height="20" viewBox="0 0 21 20" fill="none" xmlns="http://www.w3.org/2000/svg">
<path d="M11.9529 12.71C10.7459 13.5273 9.26056 13.8829 7.79122 13.7063C6.32188 13.5298 4.97581 12.8339 4.01978 11.7567C3.06375 10.6795 2.56753 9.29956 2.62947 7.89033C2.69141 6.4811 3.30699 5.14546 4.3542 4.14811C5.40142 3.15076 6.80384 2.5645 8.28353 2.50551C9.76322 2.44652 11.2122 2.9191 12.3433 3.82961C13.4743 4.74012 14.205 6.02209 14.3903 7.42146C14.5757 8.82083 14.2023 10.2355 13.3442 11.385L18.0862 15.9C18.183 15.9858 18.2605 16.0893 18.3143 16.2043C18.3681 16.3193 18.3971 16.4435 18.3994 16.5693C18.4017 16.6952 18.3774 16.8203 18.3279 16.937C18.2784 17.0537 18.2047 17.1598 18.1112 17.2488C18.0178 17.3378 17.9064 17.408 17.7838 17.4552C17.6613 17.5023 17.53 17.5255 17.3978 17.5232C17.2656 17.521 17.1353 17.4935 17.0145 17.4422C16.8938 17.391 16.7851 17.3171 16.695 17.225L11.9529 12.71ZM12.4687 8.125C12.4687 7.13044 12.0539 6.17661 11.3155 5.47335C10.5771 4.77009 9.57554 4.375 8.53125 4.375C7.48696 4.375 6.48544 4.77009 5.74702 5.47335C5.00859 6.17661 4.59375 7.13044 4.59375 8.125C4.59375 9.11956 5.00859 10.0734 5.74702 10.7766C6.48544 11.4799 7.48696 11.875 8.53125 11.875C9.57554 11.875 10.5771 11.4799 11.3155 10.7766C12.0539 10.0734 12.4687 9.11956 12.4687 8.125Z" fill="white"/>
</svg>
