<svg width="19" height="19" viewBox="0 0 19 19" fill="none" xmlns="http://www.w3.org/2000/svg">
<path d="M8.30173 12.2094C8.18636 12.3288 8.12253 12.4888 8.12397 12.6549C8.12541 12.8209 8.19202 12.9798 8.30944 13.0972C8.42687 13.2146 8.58572 13.2812 8.75178 13.2827C8.91783 13.2841 9.07781 13.2203 9.19726 13.1049L12.5755 9.71406C12.605 9.68465 12.6283 9.6497 12.6443 9.61123C12.6603 9.57276 12.6685 9.53152 12.6685 9.48986C12.6685 9.44821 12.6603 9.40697 12.6443 9.36849C12.6283 9.33002 12.605 9.29508 12.5755 9.26566L9.19726 5.87606C9.07781 5.7607 8.91783 5.69686 8.75178 5.6983C8.58572 5.69975 8.42687 5.76635 8.30944 5.88378C8.19202 6.0012 8.12541 6.16005 8.12397 6.32611C8.12253 6.49217 8.18636 6.65215 8.30173 6.7716L10.3867 8.86666H1.9C1.73203 8.86666 1.57093 8.93339 1.45216 9.05216C1.33339 9.17093 1.26666 9.33203 1.26666 9.5C1.26666 9.66797 1.33339 9.82906 1.45216 9.94783C1.57093 10.0666 1.73203 10.1333 1.9 10.1333H10.3867L8.30173 12.2094ZM15.2 1.26666H6.96666C6.79869 1.26666 6.6376 1.33339 6.51883 1.45216C6.40006 1.57093 6.33333 1.73203 6.33333 1.9C6.33333 2.06797 6.40006 2.22906 6.51883 2.34783C6.6376 2.4666 6.79869 2.53333 6.96666 2.53333H14.5667C14.7346 2.53333 14.8957 2.60006 15.0145 2.71883C15.1333 2.8376 15.2 2.99869 15.2 3.16666V15.8333C15.2 16.0013 15.1333 16.1624 15.0145 16.2812C14.8957 16.3999 14.7346 16.4667 14.5667 16.4667H6.65C6.48203 16.4667 6.32093 16.5334 6.20216 16.6522C6.08339 16.7709 6.01666 16.932 6.01666 17.1C6.01666 17.268 6.08339 17.4291 6.20216 17.5478C6.32093 17.6666 6.48203 17.7333 6.65 17.7333H15.2C15.5359 17.7333 15.8581 17.5999 16.0957 17.3623C16.3332 17.1248 16.4667 16.8026 16.4667 16.4667V2.53333C16.4667 2.19739 16.3332 1.87521 16.0957 1.63766C15.8581 1.40011 15.5359 1.26666 15.2 1.26666Z" fill="white"/>
</svg>
