<svg width="19" height="19" viewBox="0 0 19 19" fill="none" xmlns="http://www.w3.org/2000/svg">
<path d="M7 2H15C15.5523 2 16 2.44772 16 3V16C16 16.5523 15.5523 17 15 17H7" stroke="white" stroke-linecap="round"/>
<path d="M12.625 9.25068H4.22418L6.79543 6.88901C6.85496 6.83424 6.8998 6.77104 6.92739 6.70301C6.95498 6.63499 6.96478 6.56347 6.95623 6.49255C6.93896 6.34932 6.848 6.2172 6.70334 6.12526C6.55869 6.03332 6.3722 5.98909 6.1849 6.00229C5.9976 6.0155 5.82483 6.08506 5.70459 6.19568L2.16293 9.44568C2.1391 9.47153 2.11779 9.49869 2.09918 9.52693C2.09918 9.55401 2.06376 9.57026 2.04959 9.59735C2.01749 9.65945 2.00068 9.72556 2.00001 9.79235C2.00068 9.85913 2.01749 9.92524 2.04959 9.98735C2.04959 10.0144 2.08501 10.0307 2.09918 10.0578C2.11779 10.086 2.1391 10.1132 2.16293 10.139L5.70459 13.389C5.77119 13.4502 5.85459 13.4993 5.94886 13.533C6.04313 13.5667 6.14595 13.5841 6.25001 13.584C6.41551 13.5843 6.57591 13.5402 6.70334 13.4594C6.77507 13.414 6.83436 13.3581 6.87782 13.2951C6.92127 13.2321 6.94805 13.1631 6.9566 13.0922C6.96515 13.0212 6.95532 12.9497 6.92766 12.8816C6.90001 12.8136 6.85507 12.7504 6.79543 12.6957L4.22418 10.334L12.625 10.334C12.8129 10.334 12.993 10.2769 13.1259 10.1754C13.2587 10.0738 13.3333 9.93601 13.3333 9.79235C13.3333 9.64869 13.2587 9.51091 13.1259 9.40933C12.993 9.30775 12.8129 9.25068 12.625 9.25068Z" fill="white"/>
</svg>
